<svg width="54" height="54" viewBox="0 0 54 54" fill="none" xmlns="http://www.w3.org/2000/svg">
<g filter="url(#filter0_d_462_2291)">
<g filter="url(#filter1_i_462_2291)">
<path d="M4 23C4 10.2975 14.2975 0 27 0C39.7025 0 50 10.2975 50 23C50 35.7025 39.7025 46 27 46C14.2975 46 4 35.7025 4 23Z" fill="#7A7AFC"/>
</g>
<path d="M4.5 23C4.5 10.5736 14.5736 0.5 27 0.5C39.4264 0.5 49.5 10.5736 49.5 23C49.5 35.4264 39.4264 45.5 27 45.5C14.5736 45.5 4.5 35.4264 4.5 23Z" stroke="#0E064A"/>
<mask id="path-3-inside-1_462_2291" fill="white">
<path fill-rule="evenodd" clip-rule="evenodd" d="M19 35C19.5523 35 20 34.5523 20 34L20 24.6726L33.7849 32.8879C33.9079 32.9612 34.0475 32.9999 34.1897 33C34.3318 33.0001 34.4715 32.9618 34.5947 32.8887C34.7178 32.8156 34.8201 32.7105 34.8913 32.5838C34.9624 32.4571 34.9999 32.3134 35 32.167L35 13.8333C35 13.6123 34.9147 13.4004 34.7629 13.2441C34.6111 13.0878 34.4052 13 34.1904 13C34.048 13 33.9081 13.0388 33.7849 13.1125L20 21.3278L20 12C20 11.4477 19.5523 11 19 11C18.4477 11 18 11.4477 18 12L18 23.0002L18 34C18 34.5523 18.4477 35 19 35Z"/>
</mask>
<path fill-rule="evenodd" clip-rule="evenodd" d="M19 35C19.5523 35 20 34.5523 20 34L20 24.6726L33.7849 32.8879C33.9079 32.9612 34.0475 32.9999 34.1897 33C34.3318 33.0001 34.4715 32.9618 34.5947 32.8887C34.7178 32.8156 34.8201 32.7105 34.8913 32.5838C34.9624 32.4571 34.9999 32.3134 35 32.167L35 13.8333C35 13.6123 34.9147 13.4004 34.7629 13.2441C34.6111 13.0878 34.4052 13 34.1904 13C34.048 13 33.9081 13.0388 33.7849 13.1125L20 21.3278L20 12C20 11.4477 19.5523 11 19 11C18.4477 11 18 11.4477 18 12L18 23.0002L18 34C18 34.5523 18.4477 35 19 35Z" fill="#0E064A"/>
<path d="M20 34L19 34L20 34ZM20 24.6726L20.5119 23.8136L19 22.9125L19 24.6726L20 24.6726ZM33.7849 32.8879L33.2729 33.7469L33.273 33.7469L33.7849 32.8879ZM34.1897 33L34.1907 32L34.1907 32L34.1897 33ZM34.5947 32.8887L35.1049 33.7487L35.1049 33.7487L34.5947 32.8887ZM34.8913 32.5838L35.7632 33.0735L35.7632 33.0735L34.8913 32.5838ZM35 32.167L36 32.1675L36 32.167L35 32.167ZM34.7629 13.2441L34.0456 13.9409L34.0456 13.9409L34.7629 13.2441ZM34.1904 13L34.1904 12L34.1902 12L34.1904 13ZM33.7849 13.1125L34.2968 13.9715L34.298 13.9708L33.7849 13.1125ZM20 21.3278L19 21.3278L19 23.0879L20.5119 22.1868L20 21.3278ZM20 12L19 12L20 12ZM18 12L17 12L18 12ZM18 23.0002L19 23.0002L18 23.0002ZM18 34L17 34L17 34L18 34ZM19 34L19 34L19 36C20.1046 36 21 35.1046 21 34L19 34ZM19 24.6726L19 34L21 34L21 24.6726L19 24.6726ZM34.2968 32.0289L20.5119 23.8136L19.4881 25.5316L33.2729 33.7469L34.2968 32.0289ZM34.1907 32C34.2298 32 34.2665 32.0108 34.2968 32.0288L33.273 33.7469C33.5493 33.9116 33.8652 33.9997 34.1886 34L34.1907 32ZM34.0845 32.0286C34.1148 32.0106 34.1515 32 34.1907 32L34.1886 34C34.5121 34.0003 34.8282 33.9129 35.1049 33.7487L34.0845 32.0286ZM34.0194 32.0941C34.0329 32.07 34.0544 32.0465 34.0845 32.0286L35.1049 33.7487C35.3813 33.5848 35.6074 33.3509 35.7632 33.0735L34.0194 32.0941ZM34 32.1666C34 32.1428 34.006 32.1179 34.0194 32.0941L35.7632 33.0735C35.9189 32.7963 35.9999 32.4839 36 32.1675L34 32.1666ZM34 13.8333L34 32.167L36 32.167L36 13.8333L34 13.8333ZM34.0456 13.9409C34.0132 13.9075 34 13.8683 34 13.8333L36 13.8333C36 13.3563 35.8162 12.8932 35.4802 12.5473L34.0456 13.9409ZM34.1904 14C34.1304 14 34.0789 13.9752 34.0456 13.9409L35.4802 12.5473C35.1432 12.2004 34.6799 12 34.1904 12L34.1904 14ZM34.298 13.9708C34.2674 13.9891 34.2303 14 34.1907 14L34.1902 12C33.8657 12.0001 33.5487 12.0886 33.2717 12.2542L34.298 13.9708ZM20.5119 22.1868L34.2968 13.9715L33.2729 12.2535L19.4881 20.4688L20.5119 22.1868ZM19 12L19 21.3278L21 21.3278L21 12L19 12ZM19 12L21 12C21 10.8954 20.1046 10 19 10L19 12ZM19 12L19 10C17.8954 10 17 10.8954 17 12L19 12ZM19 23.0002L19 12L17 12L17 23.0002L19 23.0002ZM19 34L19 23.0002L17 23.0002L17 34L19 34ZM19 34L19 34L17 34C17 35.1046 17.8954 36 19 36L19 34Z" fill="#0E064A" mask="url(#path-3-inside-1_462_2291)"/>
</g>
<defs>
<filter id="filter0_d_462_2291" x="0" y="0" width="54" height="54" filterUnits="userSpaceOnUse" color-interpolation-filters="sRGB">
<feFlood flood-opacity="0" result="BackgroundImageFix"/>
<feColorMatrix in="SourceAlpha" type="matrix" values="0 0 0 0 0 0 0 0 0 0 0 0 0 0 0 0 0 0 127 0" result="hardAlpha"/>
<feOffset dy="4"/>
<feGaussianBlur stdDeviation="2"/>
<feComposite in2="hardAlpha" operator="out"/>
<feColorMatrix type="matrix" values="0 0 0 0 0 0 0 0 0 0 0 0 0 0 0 0 0 0 0.25 0"/>
<feBlend mode="normal" in2="BackgroundImageFix" result="effect1_dropShadow_462_2291"/>
<feBlend mode="normal" in="SourceGraphic" in2="effect1_dropShadow_462_2291" result="shape"/>
</filter>
<filter id="filter1_i_462_2291" x="4" y="0" width="46" height="51" filterUnits="userSpaceOnUse" color-interpolation-filters="sRGB">
<feFlood flood-opacity="0" result="BackgroundImageFix"/>
<feBlend mode="normal" in="SourceGraphic" in2="BackgroundImageFix" result="shape"/>
<feColorMatrix in="SourceAlpha" type="matrix" values="0 0 0 0 0 0 0 0 0 0 0 0 0 0 0 0 0 0 127 0" result="hardAlpha"/>
<feOffset dy="5"/>
<feGaussianBlur stdDeviation="14.5"/>
<feComposite in2="hardAlpha" operator="arithmetic" k2="-1" k3="1"/>
<feColorMatrix type="matrix" values="0 0 0 0 1 0 0 0 0 1 0 0 0 0 1 0 0 0 0.17 0"/>
<feBlend mode="normal" in2="shape" result="effect1_innerShadow_462_2291"/>
</filter>
</defs>
</svg>
